<?xml version="1.0" encoding="utf-8"?>
<!-- Generator: Adobe Illustrator 26.0.2, SVG Export Plug-In . SVG Version: 6.00 Build 0)  -->
<svg version="1.1" id="Слой_1" xmlns="http://www.w3.org/2000/svg" xmlns:xlink="http://www.w3.org/1999/xlink" x="0px" y="0px"
	 viewBox="0 0 1366 768" style="enable-background:new 0 0 1366 768;" xml:space="preserve">
<style type="text/css">
	.st0{fill:#FCFCFC;}
</style>
<path class="st0" d="M22.2,40.8V22.2c0-0.1,0-0.2,0-0.3c0-3.1-2.5-5.7-5.7-5.7s-5.7,2.5-5.7,5.7c0,0.1,0,0.2,0,0.4l0,0v18.5
	L22.2,40.8z"/>
<path class="st0" d="M12.4,2.2h8.2c5.1,0,9.3,4.1,9.3,9.3v1c0,5.1-4.1,9.3-9.3,9.3h-8.2c-5.1,0-9.3-4.1-9.3-9.3v-1
	C3.2,6.3,7.3,2.2,12.4,2.2z"/>
<path class="st0" d="M6.8,0.1l3.7,2.1c0.5,0.3,0.8,0.8,0.8,1.5S11,4.9,10.5,5.2l0,0L6.8,7.3C6.6,7.4,6.4,7.5,6.2,7.5
	c-0.6,0-1-0.5-1.1-1v0V1.1C5.2,0.5,5.7,0,6.2,0C6.4,0,6.6,0.1,6.8,0.1C6.8,0.1,6.8,0.1,6.8,0.1z"/>
<path class="st0" d="M26.3,0.1l-3.7,2.1c-0.5,0.3-0.8,0.8-0.8,1.5s0.3,1.2,0.8,1.4l0,0l3.7,2.1c0.1,0.1,0.3,0.1,0.5,0.1
	c0.6,0,1-0.5,1-1V1.1c0,0,0,0,0,0c0-0.6-0.5-1-1-1C26.6,0,26.4,0.1,26.3,0.1C26.3,0.1,26.3,0.1,26.3,0.1z"/>
<path class="st0" d="M2.3,20.1c1.3,0.4,2.5,1.1,3.4,2l0,0c0.8,0.7,0.9,2.2,1.7,2.8c1.3,0.8,3.6-0.3,5-0.8h0.2c0,0,0-0.1,0.5,0.7
	l0.4,0.9c0.2,0.3,0.7,2,0.4,1.8c-0.9,0.4-2,0.7-3.2,0.7c-1.8,0-3.5-0.6-4.8-1.7l0,0c-1-1-0.8-2.3-1.5-3.4c-0.6-0.9-1.4-1.6-2.4-2
	l0,0c-0.2-0.1-0.3-0.3-0.3-0.5C1.6,20.4,1.9,20.1,2.3,20.1C2.3,20.1,2.3,20.1,2.3,20.1L2.3,20.1L2.3,20.1z"/>
</svg>
