<?xml version="1.0" encoding="utf-8"?>
<!-- Generator: Adobe Illustrator 26.0.2, SVG Export Plug-In . SVG Version: 6.00 Build 0)  -->
<svg version="1.1" id="Слой_1" xmlns="http://www.w3.org/2000/svg" xmlns:xlink="http://www.w3.org/1999/xlink" x="0px" y="0px"
	 viewBox="0 0 30 40" style="enable-background:new 0 0 30 40;" xml:space="preserve">
<style type="text/css">
	.st0{fill:#FCFCFC;}
</style>
<g>
	<path class="st0" d="M21.4,41.5V22.9c0-0.1,0-0.2,0-0.3c0-3.1-2.5-5.7-5.7-5.7s-5.7,2.5-5.7,5.7c0,0.1,0,0.2,0,0.4l0,0v18.5H21.4z"
		/>
	<path class="st0" d="M11.7,2.9h8.2c5.1,0,9.3,4.1,9.3,9.3v1c0,5.1-4.1,9.3-9.3,9.3h-8.2c-5.1,0-9.3-4.1-9.3-9.3v-1
		C2.4,7,6.5,2.9,11.7,2.9z"/>
	<path class="st0" d="M6,0.8l3.7,2.1c0.5,0.3,0.8,0.8,0.8,1.5s-0.3,1.2-0.8,1.4l0,0L6,8C5.9,8.1,5.7,8.1,5.5,8.1c-0.6,0-1-0.5-1.1-1
		v0V1.7c0-0.6,0.5-1.1,1.1-1.1C5.7,0.7,5.9,0.7,6,0.8C6,0.8,6,0.8,6,0.8z"/>
	<path class="st0" d="M25.5,0.8l-3.7,2.1C21.3,3.2,21,3.8,21,4.4s0.3,1.2,0.8,1.4l0,0L25.5,8c0.1,0.1,0.3,0.1,0.5,0.1
		c0.6,0,1-0.5,1-1V1.7c0,0,0,0,0,0c0-0.6-0.5-1-1-1C25.9,0.7,25.7,0.7,25.5,0.8C25.5,0.8,25.5,0.8,25.5,0.8z"/>
	<path class="st0" d="M1.6,20.8c1.3,0.4,2.5,1.1,3.4,2l0,0c0.8,0.7,0.9,2.2,1.7,2.8c1.3,0.8,3.6-0.3,5-0.8h0.2c0,0,0-0.1,0.5,0.7
		l0.4,0.9c0.2,0.3,0.7,2,0.4,1.8c-0.9,0.4-2,0.7-3.2,0.7c-1.8,0-3.5-0.6-4.8-1.7l0,0c-1-1-0.8-2.3-1.5-3.4c-0.6-0.9-1.4-1.6-2.4-2
		l0,0c-0.2-0.1-0.3-0.3-0.3-0.5C0.9,21,1.2,20.7,1.6,20.8C1.5,20.7,1.6,20.7,1.6,20.8L1.6,20.8L1.6,20.8z"/>
</g>
</svg>
