<svg id="Слой_1" data-name="Слой 1" xmlns="http://www.w3.org/2000/svg" viewBox="0 0 30 40"><defs><style>.cls-1{fill:#fcfcfc;}</style></defs><path class="cls-1" d="M21.4,41.46V22.91c0-.1,0-.22,0-.34a5.66,5.66,0,0,0-11.32,0c0,.12,0,.24,0,.36V41.46Z"/><path class="cls-1" d="M11.66,2.87h8.2a9.26,9.26,0,0,1,9.26,9.26v1a9.26,9.26,0,0,1-9.26,9.26h-8.2A9.27,9.27,0,0,1,2.4,13.13v-1A9.27,9.27,0,0,1,11.66,2.87Z"/><path class="cls-1" d="M6,.81,9.7,3a1.69,1.69,0,0,1,.84,1.45,1.71,1.71,0,0,1-.83,1.45h0L6,8a1,1,0,0,1-.52.14,1.08,1.08,0,0,1-1.06-1h0V1.73A1.06,1.06,0,0,1,6,.81Z"/><path class="cls-1" d="M25.52.81,21.8,3a1.68,1.68,0,0,0,0,2.9h0L25.52,8a1,1,0,0,0,.52.14,1,1,0,0,0,1-1V1.71a1,1,0,0,0-1-1,1,1,0,0,0-.52.14Z"/><path class="cls-1" d="M1.56,20.79a7.67,7.67,0,0,1,3.36,2h0c.82.7.88,2.2,1.7,2.84,1.34.76,3.56-.32,5-.76h.16s0-.12.46.7l.42.92c.18.32.7,2,.4,1.84A7.64,7.64,0,0,1,9.92,29a7.81,7.81,0,0,1-4.83-1.67h0c-1-1-.82-2.3-1.5-3.44a5.44,5.44,0,0,0-2.36-2h0a.63.63,0,0,1-.32-.55.62.62,0,0,1,.62-.62h.08Z"/></svg>