<svg aria-hidden="true" style="position: absolute; width: 0; height: 0; overflow: hidden;" version="1.1" xmlns="http://www.w3.org/2000/svg" xmlns:xlink="http://www.w3.org/1999/xlink">
<defs>

<symbol id="icon-instagram" viewBox="0 0 32 32">
<path fill="#f4f4fd" style="fill: var(--color1, #f4f4fd)" d="M31.969 9.408c-0.075-1.7-0.35-2.869-0.744-3.882-0.406-1.075-1.031-2.038-1.85-2.838-0.8-0.813-1.769-1.444-2.832-1.844-1.019-0.394-2.182-0.669-3.882-0.744-1.713-0.081-2.257-0.1-6.601-0.1s-4.888 0.019-6.595 0.094c-1.7 0.075-2.869 0.35-3.882 0.744-1.075 0.406-2.038 1.031-2.838 1.85-0.813 0.8-1.444 1.769-1.844 2.832-0.394 1.019-0.669 2.182-0.744 3.882-0.081 1.713-0.1 2.257-0.1 6.601s0.019 4.888 0.094 6.595c0.075 1.7 0.35 2.869 0.744 3.882 0.406 1.075 1.038 2.038 1.85 2.838 0.8 0.813 1.769 1.444 2.832 1.844 1.019 0.394 2.182 0.669 3.882 0.744 1.706 0.075 2.25 0.094 6.595 0.094s4.888-0.019 6.595-0.094c1.7-0.075 2.869-0.35 3.882-0.744 2.151-0.831 3.851-2.532 4.682-4.682 0.394-1.019 0.669-2.182 0.744-3.882 0.075-1.707 0.094-2.25 0.094-6.595s-0.006-4.888-0.081-6.595zM29.087 22.473c-0.069 1.563-0.331 2.407-0.55 2.969-0.538 1.394-1.644 2.5-3.038 3.038-0.563 0.219-1.413 0.481-2.969 0.55-1.688 0.075-2.194 0.094-6.464 0.094s-4.782-0.019-6.464-0.094c-1.563-0.069-2.407-0.331-2.969-0.55-0.694-0.256-1.325-0.663-1.838-1.194-0.531-0.519-0.938-1.144-1.194-1.838-0.219-0.563-0.481-1.413-0.55-2.969-0.075-1.688-0.094-2.194-0.094-6.464s0.019-4.782 0.094-6.464c0.069-1.563 0.331-2.407 0.55-2.969 0.256-0.694 0.663-1.325 1.2-1.838 0.519-0.531 1.144-0.938 1.838-1.194 0.563-0.219 1.413-0.481 2.969-0.55 1.688-0.075 2.194-0.094 6.464-0.094 4.276 0 4.782 0.019 6.464 0.094 1.563 0.069 2.407 0.331 2.969 0.55 0.694 0.256 1.325 0.662 1.838 1.194 0.531 0.519 0.938 1.144 1.194 1.838 0.219 0.563 0.481 1.413 0.55 2.969 0.075 1.688 0.094 2.194 0.094 6.464s-0.019 4.77-0.094 6.458z"></path>
<path fill="#f4f4fd" style="fill: var(--color1, #f4f4fd)" d="M16.059 7.783c-4.538 0-8.22 3.682-8.22 8.22s3.682 8.22 8.22 8.22c4.539 0 8.22-3.682 8.22-8.22s-3.682-8.22-8.22-8.22zM16.059 21.335c-2.944 0-5.332-2.388-5.332-5.332s2.388-5.332 5.332-5.332c2.944 0 5.332 2.388 5.332 5.332s-2.388 5.332-5.332 5.332z"></path>
<path fill="#f4f4fd" style="fill: var(--color1, #f4f4fd)" d="M26.524 7.458c0 1.060-0.859 1.919-1.919 1.919s-1.919-0.859-1.919-1.919c0-1.060 0.859-1.919 1.919-1.919s1.919 0.859 1.919 1.919z"></path>
</symbol>

<symbol id="icon-tel" viewBox="0 0 32 32">
<path stroke-linejoin="round" stroke-linecap="round" stroke-miterlimit="4" stroke-width="2.6667" d="M20.067 6.667c1.302 0.254 2.499 0.891 3.437 1.829s1.575 2.135 1.829 3.437M20.067 1.333c2.706 0.301 5.229 1.512 7.155 3.436s3.141 4.445 3.445 7.151M29.333 22.56v4c0.002 0.371-0.075 0.739-0.223 1.079s-0.367 0.646-0.641 0.897c-0.274 0.251-0.597 0.442-0.948 0.561s-0.725 0.163-1.094 0.13c-4.103-0.446-8.044-1.848-11.507-4.093-3.222-2.047-5.953-4.778-8-8-2.253-3.478-3.656-7.439-4.093-11.56-0.033-0.369 0.010-0.74 0.129-1.091s0.308-0.673 0.558-0.947c0.25-0.273 0.553-0.492 0.892-0.641s0.705-0.227 1.075-0.227h4c0.647-0.006 1.274 0.223 1.765 0.645s0.811 1.008 0.902 1.649c0.169 1.28 0.482 2.537 0.933 3.747 0.179 0.477 0.218 0.996 0.112 1.495s-0.353 0.956-0.712 1.319l-1.693 1.693c1.898 3.338 4.662 6.102 8 8l1.693-1.693c0.363-0.359 0.82-0.606 1.319-0.712s1.017-0.067 1.494 0.112c1.21 0.451 2.467 0.765 3.747 0.933 0.648 0.091 1.239 0.418 1.662 0.917s0.647 1.136 0.631 1.79z"></path>
</symbol>

<symbol id="icon-mail" viewBox="0 0 32 32">
<path stroke-linejoin="round" stroke-linecap="round" stroke-miterlimit="4" stroke-width="2.6667" d="M5.333 5.333h21.333c1.467 0 2.667 1.2 2.667 2.667v16c0 1.467-1.2 2.667-2.667 2.667h-21.333c-1.467 0-2.667-1.2-2.667-2.667v-16c0-1.467 1.2-2.667 2.667-2.667z"></path>
<path stroke-linejoin="round" stroke-linecap="round" stroke-miterlimit="4" stroke-width="2.6667" d="M29.333 8l-13.333 9.333-13.333-9.333"></path>
</symbol>

<symbol id="icon-map-pin" viewBox="0 0 32 32">
<path stroke-linejoin="round" stroke-linecap="round" stroke-miterlimit="4" stroke-width="2.6667" d="M28 13.333c0 9.333-12 17.333-12 17.333s-12-8-12-17.333c0-6.627 5.373-12 12-12s12 5.373 12 12v0z"></path>
<path stroke-linejoin="round" stroke-linecap="round" stroke-miterlimit="4" stroke-width="2.6667" d="M20 13.333c0 2.209-1.791 4-4 4s-4-1.791-4-4c0-2.209 1.791-4 4-4s4 1.791 4 4z"></path>
</symbol>

<symbol id="icon-linkedin" viewBox="0 0 32 32">
<path fill="#f4f4fd" style="fill: var(--color1, #f4f4fd)" d="M31.992 32v-0.001h0.008v-11.736c0-5.741-1.236-10.164-7.948-10.164-3.227 0-5.392 1.771-6.276 3.449h-0.093v-2.913h-6.364v21.364h6.627v-10.579c0-2.785 0.528-5.479 3.977-5.479 3.399 0 3.449 3.179 3.449 5.657v10.401h6.62z"></path>
<path fill="#f4f4fd" style="fill: var(--color1, #f4f4fd)" d="M0.528 10.636h6.635v21.364h-6.635v-21.364z"></path>
<path fill="#f4f4fd" style="fill: var(--color1, #f4f4fd)" d="M3.843-0c-2.121 0-3.843 1.721-3.843 3.843s1.721 3.879 3.843 3.879c2.121 0 3.843-1.757 3.843-3.879-0.001-2.121-1.723-3.843-3.843-3.843v0z"></path>
</symbol>

<symbol id="icon-arrow" viewBox="0 0 32 32">
<path d="M29.333 16c0-7.36-5.973-13.333-13.333-13.333s-13.333 5.973-13.333 13.333c0 7.36 5.973 13.333 13.333 13.333s13.333-5.973 13.333-13.333zM16 17.333h-5.333v-2.667h5.333v-4l5.333 5.333-5.333 5.333v-4z"></path>
</symbol>

<symbol id="icon-custom-github" viewBox="0 0 32 32">
<path fill="#fcfcfc" style="fill: var(--color1, #fcfcfc)" d="M22.16 32v-9.76c0.006-0.101 0.010-0.218 0.010-0.336 0-3.126-2.534-5.66-5.66-5.66s-5.66 2.534-5.66 5.66c0 0.118 0.004 0.236 0.011 0.352l-0.001-0.016v9.76z"></path>
<path fill="#fcfcfc" style="fill: var(--color1, #fcfcfc)" d="M12.42 2.2h8.2c5.114 0 9.26 4.146 9.26 9.26v1c0 5.114-4.146 9.26-9.26 9.26h-8.2c-5.114 0-9.26-4.146-9.26-9.26v-1c0-5.114 4.146-9.26 9.26-9.26z"></path>
<path fill="#fcfcfc" style="fill: var(--color1, #fcfcfc)" d="M6.76 0.14l3.7 2.14c0.501 0.297 0.832 0.835 0.832 1.45s-0.331 1.153-0.824 1.446l-0.008 0.004-3.7 2.14c-0.15 0.086-0.329 0.136-0.52 0.136-0.577 0-1.047-0.461-1.060-1.035l-0-0.001v-5.36c0.002-0.584 0.476-1.056 1.060-1.056 0.191 0 0.37 0.051 0.525 0.139l-0.005-0.003z"></path>
<path fill="#fcfcfc" style="fill: var(--color1, #fcfcfc)" d="M26.28 0.14l-3.72 2.14c-0.501 0.297-0.832 0.835-0.832 1.45s0.331 1.153 0.824 1.446l0.008 0.004 3.72 2.14c0.149 0.088 0.329 0.139 0.52 0.139 0.574 0 1.040-0.465 1.040-1.039v-5.36c0-0.006 0-0.013 0-0.019 0-0.574-0.466-1.040-1.040-1.040-0.192 0-0.371 0.052-0.525 0.142l0.005-0.003z"></path>
<path fill="#fcfcfc" style="fill: var(--color1, #fcfcfc)" d="M2.32 20.12c1.323 0.387 2.456 1.080 3.359 1.999l0.001 0.001c0.82 0.7 0.88 2.2 1.7 2.84 1.34 0.76 3.56-0.32 5.040-0.76h0.16s0-0.12 0.46 0.7l0.42 0.92c0.18 0.32 0.7 2 0.4 1.84-0.937 0.428-2.032 0.678-3.185 0.678-1.824 0-3.502-0.624-4.832-1.671l0.017 0.013c-1.040-1.020-0.82-2.3-1.5-3.44-0.586-0.883-1.403-1.571-2.365-1.987l-0.035-0.013c-0.196-0.107-0.326-0.311-0.326-0.546 0-0.342 0.278-0.62 0.62-0.62 0.030 0 0.060 0.002 0.090 0.006l-0.003-0z"></path>
</symbol>

<symbol id="icon-html5" viewBox="0 0 32 32">
<path d="M2 0h28l-2.547 28.751-11.484 3.249-11.419-3.251-2.551-28.749zM11.375 13l-0.309-3.624 13.412 0.004 0.307-3.496-17.568-0.004 0.931 10.68h12.168l-0.435 4.568-3.88 1.072-3.94-1.080-0.251-2.813h-3.479l0.44 5.561 7.229 1.933 7.172-1.924 0.992-10.876h-12.789z"></path>
</symbol>

<symbol id="icon-css3" viewBox="0 0 32 32">
<path d="M2 0h28l-2.547 28.751-11.484 3.249-11.42-3.251-2.549-28.749zM24.787 5.884l-17.573-0.004 0.284 3.496 13.5 0.003-0.34 3.621h-8.853l0.32 3.431h8.243l-0.488 4.697-3.88 1.072-3.941-1.080-0.251-2.813h-3.48l0.387 5.14 7.287 2.271 7.164-2.040 1.623-17.792z"></path>
</symbol>

<symbol id="icon-javascript" viewBox="0 0 32 32">
<path d="M0 0h32v32h-32v-32zM29.379 24.368c-0.233-1.46-1.184-2.687-4.004-3.831-0.981-0.46-2.072-0.78-2.396-1.52-0.121-0.44-0.14-0.68-0.061-0.94 0.2-0.861 1.22-1.12 2.020-0.88 0.52 0.16 1 0.56 1.301 1.2 1.379-0.901 1.379-0.901 2.34-1.5-0.36-0.56-0.539-0.801-0.781-1.040-0.84-0.94-1.959-1.42-3.779-1.379l-0.94 0.119c-0.901 0.22-1.76 0.7-2.28 1.34-1.52 1.721-1.081 4.721 0.759 5.961 1.82 1.36 4.481 1.659 4.821 2.94 0.32 1.56-1.16 2.060-2.621 1.88-1.081-0.24-1.68-0.781-2.34-1.781l-2.44 1.401c0.28 0.64 0.6 0.919 1.080 1.479 2.32 2.341 8.12 2.221 9.161-1.339 0.039-0.12 0.32-0.94 0.099-2.2l0.061 0.089zM17.401 14.708h-2.997c0 2.584-0.012 5.152-0.012 7.74 0 1.643 0.084 3.151-0.184 3.615-0.44 0.919-1.573 0.801-2.088 0.64-0.528-0.261-0.796-0.621-1.107-1.14-0.084-0.14-0.147-0.261-0.169-0.261l-2.433 1.5c0.407 0.84 1 1.563 1.765 2.023 1.14 0.68 2.672 0.9 4.276 0.54 1.044-0.301 1.944-0.921 2.415-1.881 0.68-1.24 0.536-2.76 0.529-4.461 0.016-2.739 0-5.479 0-8.239l0.005-0.075z"></path>
</symbol>

<symbol id="icon-react" viewBox="0 0 32 32">
<path d="M18.973 16.005c0 1.646-1.334 2.981-2.98 2.981h-0c-1.647 0-2.981-1.335-2.981-2.981v0c0-1.646 1.334-2.981 2.98-2.981h0c1.647 0 2.981 1.335 2.981 2.981v0zM22.504 1.752c-1.795 0-4.143 1.28-6.517 3.496-2.373-2.204-4.723-3.469-6.516-3.469-0.547 0-1.044 0.124-1.475 0.371-1.833 1.057-2.244 4.352-1.297 8.487-4.059 1.253-6.699 3.257-6.699 5.369 0 2.12 2.653 4.129 6.724 5.373-0.939 4.151-0.52 7.451 1.317 8.507 0.427 0.249 0.92 0.367 1.469 0.367 1.793 0 4.143-1.28 6.517-3.499 2.373 2.205 4.723 3.471 6.516 3.471 0.547 0 1.044-0.12 1.475-0.367 1.832-1.056 2.244-4.351 1.297-8.487 4.044-1.243 6.684-3.251 6.684-5.365 0-2.12-2.653-4.129-6.724-5.376 0.939-4.147 0.52-7.449-1.317-8.507-0.424-0.245-0.917-0.369-1.456-0.371zM22.497 3.205v0.008c0.3 0 0.541 0.059 0.744 0.169 0.888 0.509 1.273 2.447 0.973 4.939-0.072 0.613-0.189 1.26-0.333 1.92-1.28-0.315-2.675-0.556-4.143-0.712-0.88-1.207-1.793-2.303-2.713-3.263 2.123-1.973 4.116-3.056 5.473-3.060zM9.471 3.232c1.349 0 3.352 1.077 5.48 3.040-0.915 0.96-1.827 2.049-2.693 3.256-1.476 0.156-2.872 0.397-4.151 0.717-0.149-0.653-0.26-1.285-0.339-1.893-0.307-2.491 0.072-4.427 0.952-4.943 0.253-0.12 0.533-0.169 0.751-0.176zM15.98 7.299c0.607 0.624 1.213 1.323 1.813 2.085-0.587-0.027-1.187-0.045-1.793-0.045-0.613 0-1.22 0.013-1.813 0.045 0.587-0.763 1.193-1.461 1.793-2.087zM16 10.8c0.987 0 1.969 0.045 2.936 0.124 0.541 0.776 1.069 1.604 1.577 2.48 0.496 0.853 0.947 1.72 1.357 2.595-0.411 0.873-0.861 1.747-1.351 2.6-0.507 0.88-1.031 1.717-1.573 2.493-0.971 0.084-1.955 0.131-2.947 0.131-0.987 0-1.969-0.047-2.936-0.124-0.541-0.776-1.069-1.605-1.577-2.48-0.496-0.853-0.947-1.72-1.357-2.595 0.404-0.876 0.861-1.751 1.351-2.605 0.507-0.88 1.031-1.715 1.573-2.491 0.971-0.085 1.955-0.131 2.947-0.131zM11.153 11.139c-0.32 0.503-0.64 1.017-0.939 1.547-0.3 0.52-0.58 1.043-0.847 1.565-0.353-0.875-0.653-1.747-0.901-2.596 0.853-0.2 1.753-0.377 2.687-0.515zM20.833 11.139c0.927 0.137 1.82 0.307 2.675 0.516-0.24 0.843-0.54 1.709-0.88 2.577-0.267-0.52-0.547-1.044-0.853-1.565-0.3-0.523-0.62-1.032-0.94-1.528zM24.917 12.039c0.645 0.2 1.259 0.423 1.833 0.664 2.309 0.987 3.803 2.277 3.803 3.301-0.007 1.024-1.5 2.32-3.809 3.3-0.56 0.24-1.173 0.456-1.807 0.657-0.373-1.277-0.861-2.608-1.467-3.973 0.6-1.356 1.080-2.68 1.447-3.952zM7.057 12.044c0.371 1.28 0.86 2.609 1.467 3.973-0.6 1.356-1.083 2.68-1.448 3.952-0.645-0.2-1.259-0.424-1.827-0.667-2.309-0.983-3.803-2.275-3.803-3.299s1.493-2.323 3.803-3.301c0.56-0.24 1.173-0.456 1.808-0.659zM22.628 17.751c0.353 0.876 0.653 1.749 0.901 2.597-0.853 0.209-1.755 0.387-2.688 0.52 0.32-0.5 0.64-1.016 0.94-1.544 0.3-0.52 0.58-1.051 0.848-1.573zM9.368 17.777c0.267 0.523 0.547 1.044 0.853 1.567 0.307 0.52 0.62 1.029 0.94 1.524-0.927-0.136-1.82-0.307-2.675-0.515 0.24-0.84 0.541-1.709 0.88-2.577zM23.893 21.76c0.149 0.657 0.267 1.291 0.339 1.897 0.307 2.491-0.072 4.427-0.952 4.944-0.196 0.12-0.451 0.171-0.751 0.171-1.349 0-3.352-1.076-5.48-3.040 0.915-0.96 1.827-2.048 2.693-3.253 1.476-0.157 2.872-0.4 4.151-0.72zM8.12 21.773c1.28 0.312 2.675 0.553 4.143 0.709 0.88 1.207 1.793 2.303 2.713 3.261-2.127 1.977-4.123 3.060-5.48 3.060-0.293-0.007-0.541-0.067-0.737-0.176-0.888-0.507-1.273-2.445-0.973-4.937 0.072-0.613 0.189-1.259 0.333-1.917zM14.2 22.627c0.587 0.027 1.187 0.045 1.793 0.045 0.613 0 1.22-0.013 1.813-0.045-0.587 0.763-1.193 1.46-1.793 2.087-0.607-0.627-1.213-1.324-1.813-2.087z"></path>
</symbol>

<symbol id="icon-typescript" viewBox="0 0 32 32">
<path d="M1.5 0c-0.831 0-1.5 0.669-1.5 1.5v29c0 0.831 0.669 1.5 1.5 1.5h29c0.831 0 1.5-0.669 1.5-1.5v-29c0-0.831-0.669-1.5-1.5-1.5zM24.651 13c0.816 0 1.539 0.049 2.169 0.148 0.655 0.1 1.241 0.258 1.799 0.473l-0.058-0.020v3.277c-0.247-0.173-0.528-0.334-0.824-0.468l-0.033-0.013c-0.263-0.123-0.58-0.241-0.908-0.335l-0.048-0.012c-0.569-0.165-1.223-0.262-1.899-0.267h-0.003c-0.4 0-0.764 0.037-1.092 0.115-0.314 0.068-0.591 0.18-0.844 0.33l0.013-0.007c-0.227 0.139-0.4 0.305-0.524 0.499-0.117 0.18-0.187 0.401-0.187 0.638 0 0.005 0 0.011 0 0.016v-0.001c0 0.261 0.071 0.497 0.208 0.705 0.139 0.208 0.336 0.405 0.591 0.592s0.564 0.368 0.928 0.547c0.364 0.18 0.776 0.365 1.235 0.555 0.627 0.263 1.189 0.543 1.688 0.837 0.499 0.296 0.927 0.631 1.284 1.004 0.357 0.372 0.629 0.797 0.819 1.276s0.285 1.035 0.285 1.671c0 0.876-0.167 1.613-0.497 2.208-0.331 0.593-0.786 1.080-1.334 1.437l-0.015 0.009c-0.568 0.366-1.233 0.642-1.945 0.788l-0.038 0.006c-0.755 0.16-1.551 0.24-2.387 0.24-0.017 0-0.038 0-0.058 0-0.847 0-1.675-0.080-2.478-0.232l0.082 0.013c-0.756-0.133-1.433-0.362-2.058-0.677l0.042 0.019v-3.507c1.155 0.988 2.664 1.592 4.314 1.6h0.002c0.444 0 0.832-0.040 1.163-0.12 0.332-0.080 0.608-0.192 0.831-0.333 0.221-0.144 0.387-0.312 0.497-0.507 0.103-0.187 0.164-0.41 0.164-0.648 0-0.302-0.098-0.582-0.265-0.808l0.003 0.004c-0.2-0.262-0.436-0.483-0.705-0.66l-0.011-0.007c-0.307-0.207-0.66-0.404-1.029-0.573l-0.047-0.019c-0.21-0.109-0.652-0.304-1.099-0.491l-0.244-0.091c-1.224-0.511-2.136-1.136-2.737-1.873-0.6-0.737-0.901-1.629-0.901-2.673 0-0.819 0.164-1.521 0.492-2.109s0.773-1.072 1.339-1.452c0.561-0.375 1.216-0.665 1.919-0.831l0.041-0.008c0.693-0.17 1.488-0.268 2.306-0.268 0.019 0 0.038 0 0.057 0h-0.003zM4.5 13.251h12.751v2.888h-4.576v12.861h-3.623v-12.861h-4.552z"></path>
</symbol>

<symbol id="icon-nodedotjs" viewBox="0 0 32 32">
<path d="M15.997 32c-0.428 0-0.855-0.112-1.229-0.329l-3.915-2.316c-0.584-0.327-0.299-0.443-0.107-0.511 0.78-0.271 0.937-0.333 1.771-0.805 0.087-0.049 0.201-0.031 0.291 0.023l3.008 1.785c0.109 0.060 0.263 0.060 0.363 0l11.727-6.768c0.109-0.063 0.179-0.188 0.179-0.317v-13.533c0-0.132-0.071-0.256-0.183-0.323l-11.721-6.763c-0.108-0.063-0.252-0.063-0.361 0l-11.719 6.764c-0.113 0.065-0.185 0.193-0.185 0.321v13.533c0 0.129 0.072 0.252 0.185 0.313l3.212 1.856c1.743 0.872 2.811-0.155 2.811-1.187v-13.361c0-0.189 0.152-0.337 0.341-0.337h1.487c0.185 0 0.34 0.149 0.34 0.337v13.361c0 2.327-1.267 3.66-3.472 3.66-0.677 0-1.212 0-2.701-0.735l-3.077-1.769c-0.76-0.439-1.229-1.26-1.229-2.139v-13.533c0-0.879 0.471-1.7 1.229-2.137l11.727-6.776c0.743-0.42 1.728-0.42 2.464 0l11.725 6.776c0.76 0.439 1.232 1.259 1.232 2.137v13.533c0 0.879-0.472 1.697-1.232 2.139l-11.725 6.771c-0.373 0.217-0.799 0.329-1.233 0.329zM25.465 18.657c0-2.533-1.712-3.208-5.316-3.684-3.641-0.481-4.012-0.731-4.012-1.583 0-0.704 0.313-1.644 3.011-1.644 2.409 0 3.297 0.519 3.663 2.143 0.032 0.153 0.172 0.265 0.329 0.265h1.521c0.095 0 0.184-0.041 0.248-0.108 0.064-0.072 0.099-0.164 0.089-0.261-0.236-2.797-2.095-4.101-5.851-4.101-3.344 0-5.339 1.411-5.339 3.777 0 2.567 1.984 3.276 5.193 3.593 3.84 0.376 4.137 0.937 4.137 1.692 0 1.311-1.052 1.869-3.523 1.869-3.103 0-3.785-0.779-4.015-2.323-0.027-0.165-0.168-0.287-0.337-0.287h-1.516c-0.188 0-0.339 0.149-0.339 0.337 0 1.976 1.075 4.331 6.207 4.331 3.717 0.001 5.848-1.461 5.848-4.017z"></path>
</symbol>

<symbol id="icon-git" viewBox="0 0 32 32">
<path d="M31.395 14.573l-13.972-13.971c-0.805-0.804-2.109-0.804-2.917 0l-2.895 2.9 3.68 3.68c0.86-0.287 1.839-0.093 2.519 0.588 0.688 0.687 0.877 1.677 0.584 2.533l3.544 3.547c0.86-0.297 1.849-0.104 2.533 0.58 0.961 0.96 0.961 2.512 0 3.472-0.959 0.959-2.508 0.959-3.467 0-0.719-0.721-0.899-1.783-0.539-2.661l-3.319-3.301v8.7c0.235 0.115 0.456 0.271 0.651 0.464 0.951 0.961 0.951 2.511 0 3.467-0.959 0.961-2.519 0.961-3.479 0-0.959-0.959-0.959-2.505 0-3.464 0.243-0.24 0.516-0.421 0.807-0.541v-8.785c-0.289-0.121-0.565-0.296-0.8-0.535-0.727-0.727-0.901-1.789-0.528-2.679l-3.616-3.633-9.581 9.575c-0.8 0.807-0.8 2.112 0 2.919l13.973 13.969c0.805 0.805 2.109 0.805 2.915 0l13.907-13.907c0.807-0.804 0.807-2.109 0-2.916z"></path>
</symbol>

<symbol id="icon-webpack" viewBox="0 0 32 32">
<path d="M29.598 24.664l-13.027 7.336v-5.714l8.116-4.445 4.91 2.823zM30.489 23.861v-15.343l-4.767 2.739v9.861zM2.402 24.664l13.027 7.336v-5.714l-8.116-4.445-4.91 2.823zM1.511 23.861v-15.343l4.767 2.739v9.861zM2.068 7.525l13.36-7.525v5.525l-8.624 4.724zM29.932 7.525l-13.36-7.525v5.525l8.624 4.725 4.736-2.724zM15.428 24.987l-8.007-4.383v-8.686l8.007 4.603v8.465zM16.572 24.987l8.007-4.383v-8.686l-8.007 4.603zM7.963 10.913l8.038-4.402 8.039 4.402-8.038 4.622z"></path>
</symbol>

<symbol id="icon-vite" viewBox="0 0 32 32">
<path d="M11.048 14.104l0.683-11.543c0.012-0.187 0.148-0.34 0.327-0.376l0.003-0 11.109-2.177c0.024-0.005 0.051-0.008 0.079-0.008 0.225 0 0.408 0.183 0.408 0.408 0 0.040-0.006 0.079-0.017 0.116l0.001-0.003-2.077 7.204c-0.010 0.034-0.016 0.073-0.016 0.113 0 0.225 0.183 0.408 0.408 0.408 0.027 0 0.054-0.003 0.080-0.008l-0.003 0 3.184-0.613c0.024-0.005 0.051-0.008 0.078-0.008 0.225 0 0.408 0.183 0.408 0.408 0 0.067-0.016 0.13-0.045 0.186l0.001-0.002-9.053 18.067-0.164 0.253c-0.070 0.113-0.193 0.187-0.334 0.187-0.001 0-0.001 0-0.002 0h0c-0.236 0-0.467-0.203-0.407-0.492l1.46-7.068c0.005-0.025 0.008-0.053 0.008-0.083 0-0.225-0.183-0.408-0.408-0.408-0.042 0-0.083 0.006-0.121 0.018l0.003-0.001-1.911 0.58c-0.036 0.011-0.076 0.018-0.119 0.018-0.225 0-0.408-0.183-0.408-0.408 0-0.029 0.003-0.057 0.009-0.084l-0 0.003 0.92-4.5c0.005-0.025 0.009-0.054 0.009-0.083 0-0.225-0.183-0.408-0.408-0.408-0.033 0-0.066 0.004-0.097 0.011l0.003-0.001-3.093 0.715c-0.027 0.007-0.059 0.010-0.091 0.010-0.225 0-0.408-0.183-0.408-0.408 0-0.008 0-0.017 0.001-0.025l-0 0.001zM31.016 3.536l-7.971 1.451-0.725 2.516 2.769-0.533c0.063-0.013 0.135-0.021 0.209-0.021 0.384 0 0.721 0.203 0.909 0.508l0.003 0.005c0.101 0.16 0.16 0.354 0.16 0.562 0 0.176-0.042 0.341-0.118 0.488l0.003-0.006-9.072 18.101-0.020 0.031-0.163 0.253c-0.192 0.297-0.521 0.492-0.896 0.493h-0c-0.34-0.002-0.643-0.158-0.844-0.401l-0.002-0.002c-0.148-0.181-0.237-0.415-0.237-0.67 0-0.079 0.009-0.156 0.025-0.23l-0.001 0.007 1.372-6.641-1.493 0.453c-0.093 0.029-0.2 0.046-0.312 0.046-0.336 0-0.636-0.153-0.834-0.393l-0.001-0.002c-0.151-0.183-0.242-0.42-0.242-0.677 0-0.076 0.008-0.151 0.023-0.223l-0.001 0.007 0.84-4.107-2.703 0.624c-0.072 0.017-0.155 0.027-0.241 0.027-0.308 0-0.587-0.13-0.783-0.337l-0-0.001c-0.18-0.193-0.291-0.452-0.291-0.738 0-0.022 0.001-0.044 0.002-0.065l-0 0.003 0.519-8.76-9.92-1.773c-0.044-0.008-0.094-0.013-0.145-0.013-0.451 0-0.816 0.365-0.816 0.816 0 0.149 0.040 0.289 0.11 0.409l-0.002-0.004 15.313 26.849c0.143 0.248 0.407 0.412 0.709 0.412 0.304 0 0.57-0.167 0.71-0.414l0.002-0.004 15.013-26.847c0.065-0.114 0.103-0.251 0.103-0.397 0-0.451-0.365-0.816-0.816-0.816-0.052 0-0.102 0.005-0.151 0.014l0.005-0.001z"></path>
</symbol>

<symbol id="icon-figma" viewBox="0 0 32 32">
<path d="M21.136 11.975h-6.117v-11.975h6.117c3.301 0 5.987 2.685 5.987 5.987s-2.685 5.988-5.987 5.988zM16.98 10.013h4.156c2.22 0 4.025-1.807 4.025-4.025s-1.807-4.025-4.025-4.025h-4.156v8.051zM16.98 11.975h-6.116c-3.301 0-5.987-2.685-5.987-5.987s2.685-5.988 5.987-5.988h6.117v11.975zM10.864 1.961c-2.22 0-4.025 1.807-4.025 4.025s1.805 4.027 4.025 4.027h4.156v-8.052h-4.156zM16.98 21.987h-6.116c-3.301 0-5.987-2.685-5.987-5.987s2.685-5.987 5.987-5.987h6.117v11.973zM10.864 11.975c-2.22 0-4.025 1.807-4.025 4.025s1.807 4.025 4.025 4.025h4.156v-8.051h-4.156zM10.896 32c-3.319 0-6.020-2.685-6.020-5.987s2.685-5.987 5.987-5.987h6.117v5.921c0 3.337-2.729 6.052-6.084 6.052zM10.864 21.987c-2.222 0.003-4.022 1.803-4.025 4.025v0c0 2.22 1.82 4.025 4.059 4.025 2.273 0 4.124-1.835 4.124-4.091v-3.96h-4.157zM21.136 21.987h-0.131c-3.301 0-5.987-2.685-5.987-5.987s2.685-5.987 5.987-5.987h0.131c3.301 0 5.987 2.685 5.987 5.987s-2.685 5.987-5.987 5.987zM21.007 11.975c-2.22 0-4.025 1.807-4.025 4.025s1.807 4.025 4.025 4.025h0.131c2.22 0 4.025-1.807 4.025-4.025s-1.807-4.025-4.025-4.025h-0.131z"></path>
</symbol>

</defs>
</svg>
